HIERARCHY
ROOT joint_Root
{
	OFFSET 0.0 0.0 0.0
	CHANNELS 6 Xposition Yposition Zposition Zrotation Xrotation Yrotation 
	JOINT Hips
	{
		OFFSET 4.5925 91.4895 -427.239
		CHANNELS 6 Xposition Yposition Zposition Zrotation Xrotation Yrotation 
		JOINT Spine
		{
			OFFSET 15.7357 0.0 0.0
			CHANNELS 6 Xposition Yposition Zposition Zrotation Xrotation Yrotation 
			JOINT Chest
			{
				OFFSET 8.98455 -0.406207 0.0
				CHANNELS 6 Xposition Yposition Zposition Zrotation Xrotation Yrotation 
				JOINT Neck
				{
					OFFSET 16.3773 0.0 0.0
					CHANNELS 6 Xposition Yposition Zposition Zrotation Xrotation Yrotation 
					JOINT Head
					{
						OFFSET 6.45672 0.0 0.0
						CHANNELS 6 Xposition Yposition Zposition Zrotation Xrotation Yrotation 
						End Site
						{
							OFFSET 0.0 0.0 0.0
						}
					}
				}
				JOINT Shoulder_L
				{
					OFFSET 12.9942 -0.242716 4.98039
					CHANNELS 6 Xposition Yposition Zposition Zrotation Xrotation Yrotation 
					JOINT UpperArm_L
					{
						OFFSET 5.34809 0.0 0.0
						CHANNELS 6 Xposition Yposition Zposition Zrotation Xrotation Yrotation 
						JOINT LowerArm_L
						{
							OFFSET 24.3286 1.87007e-05 0.0
							CHANNELS 6 Xposition Yposition Zposition Zrotation Xrotation Yrotation 
							JOINT Hand_L
							{
								OFFSET 22.2916 0.0 0.0
								CHANNELS 6 Xposition Yposition Zposition Zrotation Xrotation Yrotation 
								End Site
								{
									OFFSET 0.0 0.0 0.0
								}
							}
						}
					}
				}
				JOINT Shoulder_R
				{
					OFFSET 12.9945 -0.242716 -4.98039
					CHANNELS 6 Xposition Yposition Zposition Zrotation Xrotation Yrotation 
					JOINT UpperArm_R
					{
						OFFSET -5.34813 0.0 0.0
						CHANNELS 6 Xposition Yposition Zposition Zrotation Xrotation Yrotation 
						JOINT LowerArm_R
						{
							OFFSET -24.3289 0.000322201 0.0
							CHANNELS 6 Xposition Yposition Zposition Zrotation Xrotation Yrotation 
							JOINT Hand_R
							{
								OFFSET -22.2915 -0.000108084 0.0
								CHANNELS 6 Xposition Yposition Zposition Zrotation Xrotation Yrotation 
								End Site
								{
									OFFSET 0.0 0.0 0.0
								}
							}
						}
					}
				}
			}
		}
		JOINT UpperLeg_L
		{
			OFFSET -2.19248 -6.46944 0.0
			CHANNELS 6 Xposition Yposition Zposition Zrotation Xrotation Yrotation 
			JOINT LowerLeg_L
			{
				OFFSET 39.0811 0.0 -1.23785e-05
				CHANNELS 6 Xposition Yposition Zposition Zrotation Xrotation Yrotation 
				JOINT Foot_L
				{
					OFFSET 40.9854 0.0 -1.26872e-05
					CHANNELS 6 Xposition Yposition Zposition Zrotation Xrotation Yrotation 
					JOINT Toes_L
					{
						OFFSET 11.7543 0.0 0.0
						CHANNELS 6 Xposition Yposition Zposition Zrotation Xrotation Yrotation 
						End Site
						{
							OFFSET 0.0 0.0 0.0
						}
					}
				}
			}
		}
		JOINT UpperLeg_R
		{
			OFFSET -2.19251 6.46944 0.0
			CHANNELS 6 Xposition Yposition Zposition Zrotation Xrotation Yrotation 
			JOINT LowerLeg_R
			{
				OFFSET -39.0811 -0.00228153 -0.0401928
				CHANNELS 6 Xposition Yposition Zposition Zrotation Xrotation Yrotation 
				JOINT Foot_R
				{
					OFFSET -40.9854 0.0 0.0
					CHANNELS 6 Xposition Yposition Zposition Zrotation Xrotation Yrotation 
					JOINT Toes_R
					{
						OFFSET -11.7543 0.0 0.0
						CHANNELS 6 Xposition Yposition Zposition Zrotation Xrotation Yrotation 
						End Site
						{
							OFFSET 0.0 0.0 0.0
						}
					}
				}
			}
		}
	}
}
MOTION
Frames:	7
Frame Time:	0.0333333
0.000000 0.000000 0.000000 0.000000 0.000000 -0.000000 112.248000 89.227900 171.288000 -89.136300 31.541600 -178.785000 15.735700 0.000005 -0.000001 90.628200 81.349900 -90.391600 8.984550 -0.406207 -0.000000 9.532730 0.192238 0.456927 16.377300 -0.000001 -0.000001 6.743340 1.372970 -0.551679 6.456720 -0.000001 -0.000000 2.910610 3.284180 -3.028740 12.994200 -0.242716 4.980390 -90.723700 2.384580 -73.111900 5.348090 -0.000007 -0.000001 -63.280100 31.930600 -23.279200 24.328600 0.000019 0.000005 9.291120 16.021500 -30.656700 22.291600 -0.000001 0.000005 16.202400 5.270330 0.888966 12.994500 -0.242716 -4.980390 88.795200 8.401700 -81.809600 -5.348130 -0.000001 -0.000004 -62.330600 29.120500 -13.158000 -24.328900 0.000322 -0.000009 0.058290 0.138730 -23.154000 -22.291500 -0.000108 -0.000004 15.005300 5.394850 -2.770750 -2.192480 -6.469440 -0.000000 -175.769000 6.163490 -6.846450 39.081100 -0.000007 -0.000012 0.024656 -0.026977 42.422400 40.985400 -0.000006 -0.000013 6.024490 6.604160 -71.312500 11.754300 -0.000000 0.000003 -0.020401 -0.169512 -23.503200 -2.192510 6.469440 -0.000001 175.164000 17.584400 159.859000 -39.081100 -0.002282 -0.040193 -0.185249 0.248147 37.226600 -40.985400 0.000008 0.000006 -2.050600 7.915130 -64.441400 -11.754300 -0.000006 -0.000006 -0.006427 -0.074667 -19.612300
0.000000 0.000000 0.000000 0.000000 0.000000 -0.000000 114.405000 89.360300 170.556000 -89.693100 28.699000 -178.218000 15.735700 0.000005 -0.000001 91.101700 81.302400 -90.729200 8.984550 -0.406207 -0.000000 9.625080 0.338510 0.715850 16.377300 -0.000001 -0.000001 6.739970 0.905588 -0.341608 6.456720 -0.000001 -0.000000 2.969410 2.592140 -2.988030 12.994200 -0.242716 4.980390 -90.724600 2.386730 -73.107300 5.348090 -0.000007 -0.000001 -64.560900 31.293200 -21.554600 24.328600 0.000019 0.000005 8.098550 16.240800 -26.967000 22.291600 -0.000001 0.000005 16.345900 5.258040 1.219610 12.994500 -0.242716 -4.980390 88.814400 8.341570 -81.881100 -5.348130 -0.000001 -0.000004 -61.875100 29.281900 -13.878100 -24.328900 0.000322 -0.000009 -0.015311 -0.033248 -23.198500 -22.291500 -0.000108 -0.000004 14.945000 5.397240 -2.848060 -2.192480 -6.469440 -0.000000 -174.730000 6.456720 -9.500130 39.081100 -0.000007 -0.000012 0.040082 -0.036930 47.341200 40.985400 -0.000006 -0.000013 4.934690 9.553390 -66.380100 11.754300 -0.000000 0.000003 -0.047548 -0.288919 -28.469100 -2.192510 6.469440 -0.000001 174.978000 20.586100 161.778000 -39.081100 -0.002282 -0.040193 -0.216863 0.284179 37.764500 -40.985400 0.000008 0.000006 -1.163130 8.042550 -66.539300 -11.754300 -0.000006 -0.000006 -0.005063 -0.062070 -19.098600
0.000000 0.000000 0.000000 0.000000 0.000000 -0.000000 116.399000 89.471500 169.812000 -90.094500 26.023900 -177.586000 15.735700 0.000005 -0.000001 92.063200 81.188900 -91.526700 8.984550 -0.406207 -0.000000 9.842420 0.640254 1.017160 16.377300 -0.000001 -0.000001 6.696120 0.369313 0.013233 6.456720 -0.000001 -0.000000 2.866580 1.731700 -2.992760 12.994200 -0.242716 4.980390 -90.709100 2.331330 -73.078400 5.348090 -0.000007 -0.000001 -65.812700 30.579900 -19.909100 24.328600 0.000019 0.000005 7.256230 17.094900 -23.420100 22.291600 -0.000001 0.000005 16.070200 5.240470 1.683210 12.994500 -0.242716 -4.980390 88.841300 8.272850 -81.998700 -5.348130 -0.000001 -0.000004 -61.011900 29.471400 -14.632800 -24.328900 0.000322 -0.000009 -0.112486 -0.252808 -23.770800 -22.291500 -0.000108 -0.000004 15.121400 5.400420 -2.951270 -2.192480 -6.469440 -0.000000 -173.767000 6.555250 -13.031300 39.081100 -0.000007 -0.000012 0.067184 -0.050519 53.056500 40.985400 -0.000006 -0.000013 0.993090 10.596600 -60.481100 11.754300 -0.000000 0.000003 -0.033818 -0.234469 -26.192500 -2.192510 6.469440 -0.000001 174.733000 23.063100 163.971000 -39.081100 -0.002282 -0.040193 -0.247242 0.321474 37.929700 -40.985400 0.000008 0.000006 -0.520402 7.762690 -68.361800 -11.754300 -0.000006 -0.000006 -0.003780 -0.049138 -18.571800
0.000000 0.000000 0.000000 0.000000 0.000000 -0.000000 118.150000 89.532200 168.948000 -90.384400 23.822400 -177.029000 15.735700 0.000005 -0.000001 93.511800 81.002900 -92.829200 8.984550 -0.406207 -0.000000 10.189500 1.109440 1.265300 16.377300 -0.000001 -0.000001 6.442170 -0.137123 0.344396 6.456720 -0.000001 -0.000000 2.714540 0.845018 -2.783740 12.994200 -0.242716 4.980390 -90.721800 2.356030 -72.962500 5.348090 -0.000007 -0.000001 -66.827500 29.770300 -18.125600 24.328600 0.000019 0.000005 6.879830 18.433800 -20.886100 22.291600 -0.000001 0.000005 15.814700 5.221690 2.170540 12.994500 -0.242716 -4.980390 88.869300 8.258760 -82.176100 -5.348130 -0.000001 -0.000004 -59.504800 29.705600 -15.989700 -24.328900 0.000322 -0.000009 -0.463553 -1.023840 -24.309800 -22.291500 -0.000108 -0.000004 15.210700 5.403400 -3.048270 -2.192480 -6.469440 -0.000000 -173.507000 5.737680 -16.082000 39.081100 -0.000007 -0.000012 0.101239 -0.063393 57.944400 40.985400 -0.000006 -0.000013 -2.181370 7.968370 -56.630200 11.754300 -0.000000 0.000003 -0.007076 -0.080321 -19.846700 -2.192510 6.469440 -0.000001 174.432000 24.557400 166.160000 -39.081100 -0.002282 -0.040193 -0.277429 0.360661 37.895000 -40.985400 0.000008 0.000006 -0.224707 7.105090 -69.980600 -11.754300 -0.000006 -0.000006 -0.003153 -0.042319 -18.294200
0.000000 0.000000 0.000000 0.000000 0.000000 -0.000000 119.665000 89.574100 167.962000 -90.645000 21.869900 -176.589000 15.735700 0.000005 -0.000001 94.656400 80.878700 -93.876900 8.984550 -0.406207 -0.000000 10.409200 1.488860 1.422360 16.377300 -0.000001 -0.000001 6.287640 -0.559779 0.656325 6.456720 -0.000001 -0.000000 2.711230 0.054561 -2.521690 12.994200 -0.242716 4.980390 -90.761100 2.458590 -72.792800 5.348090 -0.000007 -0.000001 -67.577400 29.054400 -15.993000 24.328600 0.000019 0.000005 6.438950 19.119400 -19.011900 22.291600 -0.000001 0.000005 15.520800 5.219690 2.220670 12.994500 -0.242716 -4.980390 88.886200 8.369930 -82.392700 -5.348130 -0.000001 -0.000004 -57.576700 30.016800 -17.712300 -24.328900 0.000322 -0.000009 -0.613952 -1.349630 -24.426200 -22.291500 -0.000108 -0.000004 15.226700 5.405220 -3.108030 -2.192480 -6.469440 -0.000000 -174.292000 3.779000 -17.940200 39.081100 -0.000007 -0.000012 0.098837 -0.055265 60.786300 40.985400 -0.000006 -0.000013 -0.094928 2.045740 -59.550900 11.754300 -0.000000 0.000003 -0.004059 -0.052055 -18.694300 -2.192510 6.469440 -0.000001 174.038000 26.170500 168.277000 -39.081100 -0.002282 -0.040193 -0.284550 0.372765 37.674400 -40.985400 0.000008 0.000006 0.173794 6.656310 -71.410500 -11.754300 -0.000006 -0.000006 -0.002541 -0.035300 -18.008600
0.000000 0.000000 0.000000 0.000000 0.000000 -0.000000 120.987000 89.659400 166.979000 -90.953600 19.959700 -176.415000 15.735700 0.000005 -0.000001 95.542800 80.854600 -94.735100 8.984550 -0.406207 -0.000000 10.430900 1.773430 1.452560 16.377300 -0.000001 -0.000001 6.217700 -0.969150 0.905279 6.456720 -0.000001 -0.000000 2.710950 -0.632656 -2.244380 12.994200 -0.242716 4.980390 -90.811400 2.589050 -72.593700 5.348090 -0.000007 -0.000001 -67.973000 28.715100 -13.969000 24.328600 0.000019 0.000005 6.058400 19.684800 -17.488900 22.291600 -0.000001 0.000005 15.081000 5.219060 2.237200 12.994500 -0.242716 -4.980390 88.864200 8.551380 -82.405100 -5.348130 -0.000001 -0.000004 -55.789500 29.865800 -19.574700 -24.328900 0.000322 -0.000009 -0.416144 -0.926126 -24.141000 -22.291500 -0.000108 -0.000004 15.514900 5.404830 -3.095130 -2.192480 -6.469440 -0.000000 -175.647000 1.592980 -19.553900 39.081100 -0.000007 -0.000012 0.078661 -0.043527 61.039400 40.985400 -0.000006 -0.000013 2.799780 -3.347440 -61.895700 11.754300 -0.000000 0.000003 -0.003748 -0.048801 -18.561800 -2.192510 6.469440 -0.000001 173.747000 27.615700 170.109000 -39.081100 -0.002282 -0.040193 -0.233916 0.312626 37.189300 -40.985400 0.000008 0.000006 1.109370 5.931730 -72.679100 -11.754300 -0.000006 -0.000006 -0.002286 -0.032243 -17.884200
0.000000 0.000000 0.000000 0.000000 0.000000 -0.000000 122.162000 89.742800 166.051000 -91.148200 17.993700 -176.490000 15.735700 0.000005 -0.000001 96.260900 80.904300 -95.443200 8.984550 -0.406207 -0.000000 10.307700 1.988780 1.455060 16.377300 -0.000001 -0.000001 6.076480 -1.357480 1.108930 6.456720 -0.000001 -0.000000 2.717980 -1.267600 -1.900400 12.994200 -0.242716 4.980390 -90.788500 2.493190 -72.442900 5.348090 -0.000007 -0.000001 -68.446300 28.559100 -12.015800 24.328600 0.000019 0.000005 5.903180 20.561500 -16.404400 22.291600 -0.000001 0.000005 14.654100 5.216330 2.305560 12.994500 -0.242716 -4.980390 88.858900 8.538490 -82.358900 -5.348130 -0.000001 -0.000004 -54.969100 28.824100 -20.823400 -24.328900 0.000322 -0.000009 -0.216627 -0.485129 -23.957800 -22.291500 -0.000108 -0.000004 15.814200 5.400380 -2.949770 -2.192480 -6.469440 -0.000000 -177.180000 -0.229187 -20.805700 39.081100 -0.000007 -0.000012 0.053581 -0.032490 58.765300 40.985400 -0.000006 -0.000013 4.057360 -5.650780 -63.231700 11.754300 -0.000000 0.000003 -0.002761 -0.037871 -18.116900 -2.192510 6.469440 -0.000001 173.631000 28.976600 171.737000 -39.081100 -0.002282 -0.040193 -0.191309 0.263477 36.448600 -40.985400 0.000008 0.000006 1.663380 5.057470 -73.642400 -11.754300 -0.000006 -0.000006 -0.002079 -0.029706 -17.781000
